<?xml version="1.0" standalone="no"?><!DOCTYPE svg PUBLIC "-//W3C//DTD SVG 1.1//EN" "http://www.w3.org/Graphics/SVG/1.1/DTD/svg11.dtd"><svg class="icon" width="20px" height="20.00px" viewBox="0 0 1024 1024" version="1.1" xmlns="http://www.w3.org/2000/svg"><path fill="#222222" d="M258.133333 712.533333m-44.8 0a44.8 44.8 0 1 0 89.6 0 44.8 44.8 0 1 0-89.6 0Z"  /><path fill="#222222" d="M776.533333 712.533333m-44.8 0a44.8 44.8 0 1 0 89.6 0 44.8 44.8 0 1 0-89.6 0Z"  /><path fill="#222222" d="M354.133333 200.533333h311.466667c12.8 0 21.333333-10.666667 21.333333-21.333333v-2.133333c0-12.8-10.666667-21.333333-21.333333-21.333334H354.133333c-12.8 0-21.333333 10.666667-21.333333 21.333334v2.133333c-2.133333 10.666667 8.533333 21.333333 21.333333 21.333333zM797.866667 266.666667h-576c-23.466667 0-42.666667 19.2-42.666667 42.666666v179.2c0 23.466667 19.2 42.666667 42.666667 42.666667h576c23.466667 0 42.666667-19.2 42.666666-42.666667v-179.2c0-23.466667-19.2-42.666667-42.666666-42.666666z m0 221.866666h-576v-179.2h576v179.2z"  /><path fill="#222222" d="M977.066667 251.733333h-44.8v-85.333333c0-46.933333-38.4-85.333333-85.333334-85.333333H177.066667c-46.933333 0-85.333333 38.4-85.333334 85.333333v87.466667c-2.133333-2.133333-6.4-2.133333-8.533333-2.133334H44.8c-12.8 0-21.333333 8.533333-21.333333 21.333334v138.666666c0 12.8 8.533333 21.333333 21.333333 21.333334s21.333333-8.533333 21.333333-21.333334v-117.333333h17.066667c4.266667 0 6.4 0 8.533333-2.133333v520.533333c0 46.933333 38.4 85.333333 85.333334 85.333333h32v70.4c0 10.666667 10.666667 21.333333 21.333333 21.333334h2.133333c10.666667 0 21.333333-10.666667 21.333334-21.333334v-70.4h518.4v70.4c0 10.666667 10.666667 21.333333 21.333333 21.333334h2.133333c10.666667 0 21.333333-10.666667 21.333334-21.333334v-70.4h29.866666c46.933333 0 85.333333-38.4 85.333334-85.333333V294.4h23.466666v117.333333c0 12.8 8.533333 21.333333 21.333334 21.333334s21.333333-8.533333 21.333333-21.333334v-138.666666c0-12.8-8.533333-21.333333-21.333333-21.333334z m-89.6 561.066667c0 23.466667-19.2 42.666667-42.666667 42.666667H177.066667c-23.466667 0-42.666667-19.2-42.666667-42.666667V166.4c0-23.466667 19.2-42.666667 42.666667-42.666667h667.733333c23.466667 0 42.666667 19.2 42.666667 42.666667v646.4z"  /></svg>