<?xml version="1.0" standalone="no"?><!DOCTYPE svg PUBLIC "-//W3C//DTD SVG 1.1//EN" "http://www.w3.org/Graphics/SVG/1.1/DTD/svg11.dtd"><svg class="icon" width="25px" height="25.00px" viewBox="0 0 1024 1024" version="1.1" xmlns="http://www.w3.org/2000/svg"><path fill="#ffffff" d="M762.24 506.88a32 32 0 0 1-46.08-44.16l55.68-58.24a125.76 125.76 0 0 0-12.16-171.2c-48.32-50.24-119.68-54.72-160-12.48L444.16 384a125.76 125.76 0 0 0 12.16 171.2 32 32 0 0 1 0 45.12 32 32 0 0 1-45.44 0 189.44 189.44 0 0 1-12.16-259.52l155.52-162.24c66.88-69.76 180.48-64 252.8 12.8A189.44 189.44 0 0 1 818.24 448zM229.76 517.12a32 32 0 0 1 46.08 44.16l-55.68 58.24a125.76 125.76 0 0 0 12.16 171.2c48.32 50.24 119.68 54.72 160 12.48L547.84 640a125.76 125.76 0 0 0-12.16-171.2 32 32 0 0 1 0-45.12 32 32 0 0 1 45.44 0 189.44 189.44 0 0 1 12.16 259.52L437.76 845.44c-66.88 69.76-180.48 64-252.8-12.8A189.44 189.44 0 0 1 173.76 576z" /></svg>