<?xml version="1.0" standalone="no"?><!DOCTYPE svg PUBLIC "-//W3C//DTD SVG 1.1//EN" "http://www.w3.org/Graphics/SVG/1.1/DTD/svg11.dtd"><svg class="icon" width="20px" height="20.00px" viewBox="0 0 1024 1024" version="1.1" xmlns="http://www.w3.org/2000/svg"><path fill="#222222" d="M655 111.9c55 0 102.2 13.9 141.4 41.8 39.2 27.8 58.7 61.5 58.7 101.1v400.1c0 38.7-18.6 71.8-56 99.2-37.4 27.4-82.9 41.8-136.5 43.3l95.1 90.1c4.8 4.5 5.9 9.7 3.6 15.6-2.4 5.9-6.9 8.9-13.5 8.9H276.3c-6.6 0-11-3-13.5-8.9-2.4-5.9-1.2-11.2 3.6-15.6l95.1-90.1c-53.6-1.5-99.1-16-136.5-43.3-37.4-27.4-56-60.4-56-99.2v-400c0-39.7 19.5-73.4 58.7-101.1S314 112 369.1 112l285.9-0.1zM247.2 676.8c14 14 30.8 20.9 50.4 20.9 19.6 0 36.4-7 50.4-20.9 14-14 20.9-30.8 20.9-50.4 0-19.6-7.1-36.4-20.9-50.4-14-14-30.8-20.9-50.4-20.9-19.6 0-36.4 7.1-50.4 20.9-14 14-20.9 30.8-20.9 50.4 0 19.6 6.8 36.4 20.9 50.4z m236.3-221.9V226.3h-243v228.6h243z m314.2 0V226.3H540.5v228.6h257.2zM675.9 676.8c14 14 30.8 20.9 50.4 20.9 19.6 0 36.4-7 50.4-20.9 14-14 20.9-30.8 20.9-50.4 0-19.6-7.1-36.4-20.9-50.4-14-14-30.8-20.9-50.4-20.9-19.6 0-36.4 7.1-50.4 20.9-14 14-20.9 30.8-20.9 50.4 0 19.6 6.9 36.4 20.9 50.4z" /></svg>