<?xml version="1.0" standalone="no"?><!DOCTYPE svg PUBLIC "-//W3C//DTD SVG 1.1//EN" "http://www.w3.org/Graphics/SVG/1.1/DTD/svg11.dtd"><svg class="icon" width="20px" height="20.00px" viewBox="0 0 1024 1024" version="1.1" xmlns="http://www.w3.org/2000/svg"><path fill="#222222" d="M436.658058 134.110417 436.658058 134.110417 436.658058 134.110417c-8.952906-11.162224-29.229718-11.786441-40.296775-9.718339-19.717064 3.625574-42.385343 15.089673-56.893778 24.645306-41.179888 27.1565-71.473845 57.522088-77.263711 101.69924-8.766664 65.707514 24.251334 225.258347 89.097224 349.651448 64.84896 124.368542 173.130106 235.836263 229.001601 260.435521 35.712363 15.764032 85.23629 0.440022 125.833917-29.807886 18.553565-13.812587 33.06507-23.810289 47.12939-44.478004 7.067976-9.371438 11.301394-19.763113 9.509585-33.296337-0.532119-3.465938-2.023076-10.278087-2.023076-10.278087s-3.927449-23.970948-28.367071-56.475246c-9.04398-12.046361-22.040992-27.876907-32.830733-39.270399-20.341281-21.533432-38.965453-37.08871-38.965453-37.08871l-4.768607-3.278673c-8.927323-6.996344-19.646456-7.716752-29.507034-1.415232-0.975211 0.602727-2.206248 1.347694-2.206248 1.347694-0.536212 0.48607-5.234211 3.789303-5.76633 4.229325-11.92868 11.045567-9.048073 9.417487-18.903535 19.022239-10.601452 10.673084-15.97381 21.576411-30.574343 39.086204-14.812357 17.715477-40.458457 13.298887-50.967812 4.393054-28.831652-24.435529-56.358589-61.009516-88.585571-122.857119-27.856441-53.384861-41.364083-101.585653-50.596352-138.717342-7.253194-29.250184 15.97381-50.130747 35.367509-55.268768 14.274098-3.789303 28.459169-6.30152 38.73521-8.951883 23.598464-6.254447 31.343869-10.416234 28.924773-9.809413 5.346775-1.466398 11.999288-6.021134 15.972786-12.159948 4.417613-6.816243 6.837732-17.531282 5.443989-24.740474l-3.211135-16.438391c0.301875 1.022283-4.207835-14.973016-11.623735-38.20309-6.117324-19.134803-15.97381-44.223201-24.925692-64.6136-10.907421-24.809035-17.60189-34.970466-17.60189-34.970466s-7.092535-10.812253-6.183839-9.06547L436.658058 134.110417 436.658058 134.110417z" /></svg>